<svg xmlns="http://www.w3.org/2000/svg" viewBox="0 0 142 82" width="142" height="82" role="img" aria-label="AG logo">
  <path fill="#222222" fill-rule="evenodd" d="M 43 34.25 L 41.88 38.5 L 41.88 45.62 L 42.75 48.12 L 42.88 50.12 L 43.62 51.5 L 43.88 53 L 46 57.25 L 48.75 61.12 L 52.62 64.88 L 55.5 66.88 L 59.75 69 L 65.5 70.62 L 68.38 71 L 74.25 70.88 L 78.75 69.88 L 83.25 68.12 L 86.25 66.38 L 90 63.12 L 90.5 63 L 91 63.75 L 90.88 64.5 L 91.62 66.75 L 91.88 69.25 L 92.5 70.12 L 93.25 70.38 L 98.38 70.38 L 99 69.38 L 99 37.5 L 98.62 36.75 L 72.38 36.75 L 71.88 37.38 L 71.88 46.62 L 72.38 47.75 L 85.88 47.88 L 86.5 48.38 L 86.5 48.75 L 84.62 52.25 L 80.38 56.62 L 75.25 59 L 69.5 59.5 L 65.5 58.88 L 62.12 57.38 L 59.62 55.75 L 56.5 52.38 L 53.88 47.12 L 53.75 45.25 L 49.5 42.5 L 47.38 40.5 L 45.62 38.12 L 43.88 34.38 L 43.5 34 Z
    M 48.12 11.38 L 47.25 11 L 38.5 11.12 L 37.5 11.88 L 24.75 44.12 L 21 52.5 L 14.25 69.62 L 14.5 70.5 L 24 70.62 L 25.62 70.12 L 31 57.25 L 31 56.62 L 31.88 55.25 L 32.12 53.88 L 35.62 46.25 L 38.38 38.62 L 39.12 37.5 L 39.25 36.38 L 40 35.25 L 41.12 31.75 L 41.75 30.88 L 42 29.62 L 43.38 27.5 L 47.12 36.38 L 50.38 40.38 L 52.75 42 L 55.25 43 L 58.62 43.62 L 60.25 43.62 L 60.62 43.25 L 60.62 42.38 L 59.12 39.25 L 59.12 38.5 L 58.25 37.12 L 58.12 35.88 L 55.75 30.25 L 55.75 29.5 L 55 28.25 L 54.62 26.5 L 54 25.75 L 53.75 24.38 L 52.12 21.12 L 51.88 19.62 L 51 18.5 L 51 17.62 L 50.12 16.12 L 49.12 12.75 Z
    M 53.62 16.75 L 53.75 18.75 L 55.5 22.5 L 57.38 28.12 L 58.62 27.88 L 60.75 25.5 L 65.5 22.88 L 69 22 L 72.12 21.88 L 76.12 22.75 L 78.25 23.62 L 82.25 26.38 L 84.12 28.75 L 84.88 28.75 L 93.12 23.62 L 93.62 22.75 L 93.38 22 L 91.38 19.62 L 88.38 16.75 L 86.25 15.25 L 81.62 12.88 L 74.88 11 L 66.88 11 L 62.5 12 L 56.62 14.5 Z"/>
</svg>
